# xmcd CD database file
#
# Track frame offsets:
#	150
#	3889
#	14061
#	28983
#	46158
#	63627
#	73631
#	93723
#	111944
#	126552
#	142422
#	166355
#	185542
#	195781
#	211845
#	231228
#	244265
#	263370
#	285279
#
# Disc length: 4008 seconds
#
# Revision: 5
# Processed by: cddbd v1.5.2PL0 Copyright (c) Steve Scherf et al.
# Submitted via: CDex 1.70beta2
#
DISCID=180fa613
DTITLE=ORANGE RANGE - musiQ
DYEAR=2004
DGENRE=Japanese Rock
TTITLE0=KA・RI・SU・MA
TTITLE1=チェスト
TTITLE2=ロコローション
TTITLE3=以心電信
TTITLE4=ZUNG ZUNG FUNKY MUSIC
TTITLE5=パディ ボン マヘ
TTITLE6=シティボーイ
TTITLE7=謝謝
TTITLE8=男子ing session
TTITLE9=Beat Ball
TTITLE10=ミチシルベ ～a road home～
TTITLE11=花
TTITLE12=FULLTHROTTLE
TTITLE13=祭男爵
TTITLE14=papa
TTITLE15=HUB☆STAR
TTITLE16=Oh! Yeah
TTITLE17=SP Thanx
TTITLE18=ジパング2ジパング
EXTD=YEAR: 2004
EXTT0=
EXTT1=
EXTT2=
EXTT3=
EXTT4=
EXTT5=
EXTT6=
EXTT7=
EXTT8=
EXTT9=
EXTT10=
EXTT11=
EXTT12=
EXTT13=
EXTT14=
EXTT15=
EXTT16=
EXTT17=
EXTT18=
PLAYORDER=
